<svg width="218" height="60" viewBox="0 0 218 60" fill="none" xmlns="http://www.w3.org/2000/svg">
<path d="M16.6875 26.7188C11.5417 25.2396 7.79167 23.4271 5.4375 21.2812C3.10417 19.1146 1.9375 16.4479 1.9375 13.2812C1.9375 9.69792 3.36458 6.73958 6.21875 4.40625C9.09375 2.05208 12.8229 0.875 17.4062 0.875C20.5312 0.875 23.3125 1.47917 25.75 2.6875C28.2083 3.89583 30.1042 5.5625 31.4375 7.6875C32.7917 9.8125 33.4688 12.1354 33.4688 14.6562H27.4375C27.4375 11.9062 26.5625 9.75 24.8125 8.1875C23.0625 6.60417 20.5938 5.8125 17.4062 5.8125C14.4479 5.8125 12.1354 6.46875 10.4688 7.78125C8.82292 9.07292 8 10.875 8 13.1875C8 15.0417 8.78125 16.6146 10.3438 17.9062C11.9271 19.1771 14.6042 20.3438 18.375 21.4062C22.1667 22.4688 25.125 23.6458 27.25 24.9375C29.3958 26.2083 30.9792 27.6979 32 29.4062C33.0417 31.1146 33.5625 33.125 33.5625 35.4375C33.5625 39.125 32.125 42.0833 29.25 44.3125C26.375 46.5208 22.5312 47.625 17.7188 47.625C14.5938 47.625 11.6771 47.0312 8.96875 45.8438C6.26042 44.6354 4.16667 42.9896 2.6875 40.9062C1.22917 38.8229 0.5 36.4583 0.5 33.8125H6.53125C6.53125 36.5625 7.54167 38.7396 9.5625 40.3438C11.6042 41.9271 14.3229 42.7188 17.7188 42.7188C20.8854 42.7188 23.3125 42.0729 25 40.7812C26.6875 39.4896 27.5312 37.7292 27.5312 35.5C27.5312 33.2708 26.75 31.5521 25.1875 30.3438C23.625 29.1146 20.7917 27.9062 16.6875 26.7188ZM68.9375 30.4688C68.9375 35.6146 67.7604 39.7604 65.4062 42.9062C63.0521 46.0521 59.8646 47.625 55.8438 47.625C51.7396 47.625 48.5104 46.3229 46.1562 43.7188V60H40.375V13.1875H45.6562L45.9375 16.9375C48.2917 14.0208 51.5625 12.5625 55.75 12.5625C59.8125 12.5625 63.0208 14.0938 65.375 17.1562C67.75 20.2188 68.9375 24.4792 68.9375 29.9375V30.4688ZM63.1562 29.8125C63.1562 26 62.3438 22.9896 60.7188 20.7812C59.0938 18.5729 56.8646 17.4688 54.0312 17.4688C50.5312 17.4688 47.9062 19.0208 46.1562 22.125V38.2812C47.8854 41.3646 50.5312 42.9062 54.0938 42.9062C56.8646 42.9062 59.0625 41.8125 60.6875 39.625C62.3333 37.4167 63.1562 34.1458 63.1562 29.8125ZM82.5938 47H76.8125V13.1875H82.5938V47ZM76.3438 4.21875C76.3438 3.28125 76.625 2.48958 77.1875 1.84375C77.7708 1.19792 78.625 0.875 79.75 0.875C80.875 0.875 81.7292 1.19792 82.3125 1.84375C82.8958 2.48958 83.1875 3.28125 83.1875 4.21875C83.1875 5.15625 82.8958 5.9375 82.3125 6.5625C81.7292 7.1875 80.875 7.5 79.75 7.5C78.625 7.5 77.7708 7.1875 77.1875 6.5625C76.625 5.9375 76.3438 5.15625 76.3438 4.21875ZM105.438 42.9062C107.5 42.9062 109.302 42.2812 110.844 41.0312C112.385 39.7812 113.24 38.2188 113.406 36.3438H118.875C118.771 38.2812 118.104 40.125 116.875 41.875C115.646 43.625 114 45.0208 111.938 46.0625C109.896 47.1042 107.729 47.625 105.438 47.625C100.833 47.625 97.1667 46.0938 94.4375 43.0312C91.7292 39.9479 90.375 35.7396 90.375 30.4062V29.4375C90.375 26.1458 90.9792 23.2188 92.1875 20.6562C93.3958 18.0938 95.125 16.1042 97.375 14.6875C99.6458 13.2708 102.323 12.5625 105.406 12.5625C109.198 12.5625 112.344 13.6979 114.844 15.9688C117.365 18.2396 118.708 21.1875 118.875 24.8125H113.406C113.24 22.625 112.406 20.8333 110.906 19.4375C109.427 18.0208 107.594 17.3125 105.406 17.3125C102.469 17.3125 100.188 18.375 98.5625 20.5C96.9583 22.6042 96.1562 25.6562 96.1562 29.6562V30.75C96.1562 34.6458 96.9583 37.6458 98.5625 39.75C100.167 41.8542 102.458 42.9062 105.438 42.9062ZM139.406 47.625C134.823 47.625 131.094 46.125 128.219 43.125C125.344 40.1042 123.906 36.0729 123.906 31.0312V29.9688C123.906 26.6146 124.542 23.625 125.812 21C127.104 18.3542 128.896 16.2917 131.188 14.8125C133.5 13.3125 136 12.5625 138.688 12.5625C143.083 12.5625 146.5 14.0104 148.938 16.9062C151.375 19.8021 152.594 23.9479 152.594 29.3438V31.75H129.688C129.771 35.0833 130.74 37.7812 132.594 39.8438C134.469 41.8854 136.844 42.9062 139.719 42.9062C141.76 42.9062 143.49 42.4896 144.906 41.6562C146.323 40.8229 147.562 39.7188 148.625 38.3438L152.156 41.0938C149.323 45.4479 145.073 47.625 139.406 47.625ZM138.688 17.3125C136.354 17.3125 134.396 18.1667 132.812 19.875C131.229 21.5625 130.25 23.9375 129.875 27H146.812V26.5625C146.646 23.625 145.854 21.3542 144.438 19.75C143.021 18.125 141.104 17.3125 138.688 17.3125ZM159.438 43.9688C159.438 42.9688 159.729 42.1354 160.312 41.4688C160.917 40.8021 161.812 40.4688 163 40.4688C164.188 40.4688 165.083 40.8021 165.688 41.4688C166.312 42.1354 166.625 42.9688 166.625 43.9688C166.625 44.9271 166.312 45.7292 165.688 46.375C165.083 47.0208 164.188 47.3438 163 47.3438C161.812 47.3438 160.917 47.0208 160.312 46.375C159.729 45.7292 159.438 44.9271 159.438 43.9688ZM182.469 47H176.688V13.1875H182.469V47ZM176.219 4.21875C176.219 3.28125 176.5 2.48958 177.062 1.84375C177.646 1.19792 178.5 0.875 179.625 0.875C180.75 0.875 181.604 1.19792 182.188 1.84375C182.771 2.48958 183.062 3.28125 183.062 4.21875C183.062 5.15625 182.771 5.9375 182.188 6.5625C181.604 7.1875 180.75 7.5 179.625 7.5C178.5 7.5 177.646 7.1875 177.062 6.5625C176.5 5.9375 176.219 5.15625 176.219 4.21875ZM211.438 38.0312C211.438 36.4688 210.844 35.2604 209.656 34.4062C208.49 33.5312 206.438 32.7812 203.5 32.1562C200.583 31.5312 198.26 30.7812 196.531 29.9062C194.823 29.0312 193.552 27.9896 192.719 26.7812C191.906 25.5729 191.5 24.1354 191.5 22.4688C191.5 19.6979 192.667 17.3542 195 15.4375C197.354 13.5208 200.354 12.5625 204 12.5625C207.833 12.5625 210.938 13.5521 213.312 15.5312C215.708 17.5104 216.906 20.0417 216.906 23.125H211.094C211.094 21.5417 210.417 20.1771 209.062 19.0312C207.729 17.8854 206.042 17.3125 204 17.3125C201.896 17.3125 200.25 17.7708 199.062 18.6875C197.875 19.6042 197.281 20.8021 197.281 22.2812C197.281 23.6771 197.833 24.7292 198.938 25.4375C200.042 26.1458 202.031 26.8229 204.906 27.4688C207.802 28.1146 210.146 28.8854 211.938 29.7812C213.729 30.6771 215.052 31.7604 215.906 33.0312C216.781 34.2812 217.219 35.8125 217.219 37.625C217.219 40.6458 216.01 43.0729 213.594 44.9062C211.177 46.7188 208.042 47.625 204.188 47.625C201.479 47.625 199.083 47.1458 197 46.1875C194.917 45.2292 193.281 43.8958 192.094 42.1875C190.927 40.4583 190.344 38.5938 190.344 36.5938H196.125C196.229 38.5312 197 40.0729 198.438 41.2188C199.896 42.3438 201.812 42.9062 204.188 42.9062C206.375 42.9062 208.125 42.4688 209.438 41.5938C210.771 40.6979 211.438 39.5104 211.438 38.0312Z" fill="#FBEBEB"/>
</svg>
